<svg width="10" height="10" viewBox="0 0 10 10" fill="none" xmlns="http://www.w3.org/2000/svg">
<path fill-rule="evenodd" clip-rule="evenodd" d="M10 5C10 7.76142 7.76142 10 5 10C2.23858 10 0 7.76142 0 5C0 2.23858 2.23858 0 5 0C7.76142 0 10 2.23858 10 5ZM4.375 3.125V5C4.375 5.34518 4.65482 5.625 5 5.625C5.34518 5.625 5.625 5.34518 5.625 5V3.125C5.625 2.77982 5.34518 2.5 5 2.5C4.65482 2.5 4.375 2.77982 4.375 3.125ZM5 7.5C5.34518 7.5 5.625 7.22018 5.625 6.875C5.625 6.52982 5.34518 6.25 5 6.25C4.65482 6.25 4.375 6.52982 4.375 6.875C4.375 7.22018 4.65482 7.5 5 7.5Z" fill="black"/>
</svg>
